<svg xmlns="http://www.w3.org/2000/svg" viewBox="0 0 64 64" id="facebook">
  <path fill="#0f6aef" fill-rule="evenodd" d="m60,12c0-4.42-3.58-8-8-8H12C7.58,4,4,7.58,4,12v40c0,4.42,3.58,8,8,8h15.98l4.18-2.42,3.84,2.42h15.99c4.42,0,8-3.58,8-8V12h0Z"></path>
  <path fill="#fff" fill-rule="evenodd" d="m28,60v-20h-6c-.26,0-.52-.1-.71-.29-.19-.19-.29-.44-.29-.71v-6c0-.27.11-.52.29-.71.19-.19.44-.29.71-.29h6v-8.68c0-2.21.88-4.32,2.44-5.89,1.56-1.56,3.68-2.44,5.89-2.44h6.68c.26,0,.52.11.71.29.19.19.29.44.29.71v5c0,.27-.11.52-.29.71-.19.19-.44.29-.71.29h-2.92c-2.26,0-4.08,1.83-4.08,4.08v5.92h6.87c.29,0,.56.12.75.34.19.22.28.5.24.79-.2,1.61-.57,4.54-.75,6-.06.5-.49.88-.99.88h-6.12v20h-8Z"></path>
</svg>
