<svg xmlns="http://www.w3.org/2000/svg" viewBox="0 0 64 64" id="instagram">
  <defs>
    <radialGradient id="a" cx="32" cy="32" r="45.36" fx="12.6" fy="71.62" gradientTransform="matrix(1 0 0 .97 0 .82)" gradientUnits="userSpaceOnUse">
      <stop offset=".13" stop-color="#ffc500"></stop>
      <stop offset=".35" stop-color="#fe8c03"></stop>
      <stop offset=".52" stop-color="#ff113d"></stop>
      <stop offset=".65" stop-color="#fe008b"></stop>
      <stop offset=".8" stop-color="#fc01ce"></stop>
      <stop offset=".95" stop-color="#800bfd"></stop>
    </radialGradient>
  </defs>
  <path fill="url(#a)" fill-rule="evenodd" d="m60,12c0-4.42-3.58-8-8-8H12C7.58,4,4,7.58,4,12v40c0,4.42,3.58,8,8,8h40c4.42,0,8-3.58,8-8V12h0Z"></path>
  <path fill="#fff" fill-rule="evenodd" d="m53,23c0-3.18-1.27-6.23-3.52-8.48-2.25-2.25-5.3-3.52-8.48-3.52h-18c-3.18,0-6.24,1.26-8.49,3.52-2.25,2.25-3.51,5.3-3.51,8.48v18c0,3.18,1.26,6.24,3.51,8.49,2.25,2.25,5.3,3.51,8.49,3.51h18c3.18,0,6.23-1.26,8.48-3.51s3.52-5.3,3.52-8.49v-18h0Zm-4,0v18c0,2.12-.84,4.16-2.34,5.66s-3.54,2.34-5.66,2.34h-18c-2.12,0-4.16-.84-5.66-2.34-1.5-1.5-2.34-3.54-2.34-5.66v-18c0-2.12.84-4.16,2.34-5.66,1.5-1.5,3.54-2.34,5.66-2.34h18c2.12,0,4.16.84,5.66,2.34,1.5,1.5,2.34,3.53,2.34,5.66h0Zm-17-2c-6.07,0-11,4.93-11,11s4.93,11,11,11,11-4.93,11-11-4.93-11-11-11h0Zm0,4c3.86,0,7,3.14,7,7s-3.14,7-7,7-7-3.14-7-7,3.14-7,7-7h0Zm11-6c1.1,0,2,.9,2,2s-.9,2-2,2-2-.9-2-2,.9-2,2-2h0Z"></path>
</svg>
